<?xml version="1.0" encoding="utf-8"?>
<!-- Generator: Adobe Illustrator 27.5.0, SVG Export Plug-In . SVG Version: 6.00 Build 0)  -->
<svg version="1.1" xmlns="http://www.w3.org/2000/svg" xmlns:xlink="http://www.w3.org/1999/xlink" x="0px" y="0px"
	 viewBox="0 0 500 500" style="enable-background:new 0 0 500 500;" xml:space="preserve">
<g id="BACKGROUND">
	<g>
		<rect style="fill:#F8F2EC;" width="500" height="500"/>
		<path style="fill:#EFE3D5;" d="M113.89,256.008c-5.916,3.671-11.739,7.822-15.399,13.497c-3.659,5.676-4.752,13.206-1.068,18.868
			c6.97,10.712,26.753,10.21,31.638,21.881c3.435,8.206-3.279,17.299-11.371,21.859c-8.092,4.559-17.691,6.471-25.603,11.296
			c-7.912,4.825-13.95,14.539-9.594,22.356c2.832,5.081,8.998,7.588,14.703,9.719c15.169,5.666,30.337,11.331,45.506,16.997
			c48.441,18.093,117.848,21.125,153.813-5.89c8.966-6.735,11.655-21.328,4.655-30.063c-3.77-4.705-10.702-8.37-10.127-14.216
			c0.401-4.075,4.719-7.012,9.056-7.668c4.337-0.656,8.731,0.397,13.038,1.205c24.865,4.663,51.433,1.006,73.786-10.156
			c8.602-4.295,17.576-11.619,16.193-20.616c-1.351-8.789-11.6-13.456-20.503-16.632c7.954-0.832,16.093-1.713,23.27-5.014
			c7.177-3.3,13.322-9.559,13.896-16.994c0.604-7.823-5.117-15.129-12.33-19.178c-7.213-4.049-15.731-5.465-24.044-6.724
			c-39.811-6.029-79.96-10.12-120.229-12.259c-32.762-1.74-62.567-2.755-94.299,5.078
			C149.326,238.18,130.755,245.543,113.89,256.008z"/>
	</g>
</g>
<g id="OBJECTS">
	<path style="fill:#D56327;" d="M237.782,299.89l-110.145-31.825c-1.416-0.409-1.337-2.441,0.106-2.74l176.326-36.475
		c0.214-0.044,0.435-0.038,0.646,0.018l105.253,27.779c1.421,0.375,1.395,2.402-0.035,2.74l-171.434,40.521
		C238.262,299.964,238.015,299.958,237.782,299.89z"/>
	<path style="fill:#E8C977;" d="M173.22,170.431"/>
	<path style="fill:#F3CD7C;" d="M405.743,229.304c-10.8,2.057-21.532,4.451-32.266,6.826c-10.665,2.359-21.331,4.709-31.99,7.096
		c-21.316,4.775-42.586,9.766-63.924,14.438c-5.989,1.311-11.978,2.622-17.967,3.934c-6.057,1.326-12.152,2.493-18.193,3.887
		c-1.478,0.341-0.997,2.504,0.487,2.185c10.742-2.31,21.424-4.956,32.142-7.386c10.652-2.416,21.324-4.741,31.997-7.06
		c21.347-4.639,42.667-9.396,63.982-14.181c12.033-2.701,24.083-5.345,36.031-8.401C406.941,230.411,406.656,229.13,405.743,229.304
		z"/>
	<g>
		<g>
			<g>
				<path style="fill:#F8F2EC;" d="M237.513,265.612v28.262l-106.995-29.114c0.338-1.014,0.596-2.044,0.773-3.09v-0.016
					c0.096-0.531,0.161-1.062,0.209-1.609c0.097-0.982,0.145-1.996,0.129-2.977c-0.016-0.563-0.032-1.127-0.081-1.674
					c-0.113-1.69-0.37-3.348-0.708-4.925c-0.129-0.612-0.274-1.223-0.418-1.803c-0.419-1.609-0.885-3.106-1.368-4.426
					c-0.241-0.676-0.483-1.304-0.724-1.867c-0.934-2.35-1.706-3.782-1.706-3.782L237.513,265.612z"/>
				<g>
					<g>
						<path style="fill:#332D29;" d="M237.513,272.211L128.33,242.372c0.241,0.563,0.483,1.191,0.724,1.867l108.459,29.63V272.211z"
							/>
					</g>
					<g>
						<path style="fill:#332D29;" d="M237.513,290.929v1.674l-106.222-30.933v-0.016c0.096-0.531,0.161-1.062,0.209-1.609
							L237.513,290.929z"/>
					</g>
					<g>
						<path style="fill:#332D29;" d="M237.513,284.33l-105.965-28.937c0.048,0.547,0.064,1.11,0.081,1.674l105.884,28.938V284.33z"
							/>
					</g>
					<g>
						<path style="fill:#332D29;" d="M237.513,279.357l-107.091-30.692c0.145,0.579,0.29,1.191,0.418,1.803l106.673,30.563V279.357z
							"/>
					</g>
				</g>
				<path style="fill:#D56327;" d="M234.995,269.898l-110.501-31.927c-1.416-0.409-1.337-2.441,0.106-2.74l176.326-36.475
					c0.214-0.044,0.435-0.038,0.647,0.018l109.571,29.864L234.995,269.898z"/>
				<path style="fill:#D56327;" d="M415.307,256.857c0.08,0.708-0.386,1.352-1.078,1.513l-6.872,1.625l-2.913,0.692l-6.47,1.529
					l-2.269,0.531l-144.543,34.168l-2.237,0.531l-9.206,2.173c-0.837,0.193-1.641-0.37-1.738-1.223l-0.467-4.522l-0.145-1.32
					l-0.177-1.722l-0.531-5.054l-0.177-1.722v-0.016l-0.354-3.412l-0.177-1.722l-0.596-5.633l-0.177-1.706l-0.177-1.674l2.511-0.595
					l7.596-1.787l1.964-0.467l144.832-34.233l1.095-0.257l16.899-3.991c0.258-0.064,0.515-0.081,0.756-0.048
					c0.016,0,0.016,0,0.032,0l0.451,0.129c0.74,0.258,1.32,0.933,1.4,1.786L415.307,256.857z"/>
				<g>
					<path style="fill:#F3CD7C;" d="M251.161,296.916l-2.237,0.531c-0.692-10.043-2.173-19.973-3.814-29.919v-0.016
						c-0.048-0.37-0.113-0.74-0.177-1.111c-0.209-1.255,1.642-1.706,1.915-0.451c0.08,0.37,0.161,0.724,0.225,1.094v0.016
						C249.149,276.878,250.308,286.905,251.161,296.916z"/>
					<path style="fill:#F3CD7C;" d="M407.356,259.995l-2.913,0.692c-0.113-0.966-0.225-1.931-0.338-2.913
						c-0.338-2.881-0.692-5.778-1.078-8.659c-0.789-5.81-1.658-11.636-2.495-17.446c-0.032-0.225,0.016-0.419,0.113-0.563
						c0.274-0.451,0.982-0.612,1.448-0.338c0.209,0.08,0.37,0.274,0.435,0.547c1.239,5.794,2.285,11.636,3.203,17.478
						c0.451,2.945,0.885,5.891,1.304,8.852C407.147,258.418,407.243,259.207,407.356,259.995z"/>
					<path style="fill:#F3CD7C;" d="M397.973,262.216l-2.269,0.531c-0.097-0.837-0.209-1.658-0.322-2.495
						c-0.37-2.897-0.772-5.794-1.191-8.675c-0.837-5.923-1.754-11.829-2.639-17.752c-0.032-0.225,0-0.434,0.064-0.612
						c0.081-0.161,0.177-0.29,0.29-0.402c0.306-0.257,0.74-0.37,1.095-0.257c0.145,0.048,0.274,0.129,0.354,0.257
						c0.129,0.129,0.209,0.29,0.241,0.483c1.094,5.939,2.028,11.91,2.881,17.881c0.434,2.961,0.837,5.923,1.223,8.884
						C397.796,260.784,397.893,261.492,397.973,262.216z"/>
				</g>
				<g>
					<path style="fill:#F3CD7C;" d="M386.055,243.395c-0.193-0.419-0.628-0.74-1.207-0.612
						c-30.756,6.888-97.592,22.66-128.541,28.728c-0.563,0.113-1.289,0.454-1.159,1.642c0.486,4.429,1.328,8.937,2.06,13.39
						c0.23,1.399,1.481,1.014,1.819,0.949c30.788-5.842,114.738-25.097,128.499-29.106c0.445-0.13,1.132-0.454,0.951-1.427
						C387.86,253.631,387.119,248.952,386.055,243.395z"/>
				</g>
			</g>
			<path style="fill:#75B87A;" d="M216.931,280.361l8.468,2.325c-3.957,3.3-1.015,7.973-2.883,10.809
				c-3.808,5.778-13.387,1.609-14.81,8.046l-11.011-3.233c1.333-7.64,17.99-4.508,17.988-8.708
				C214.683,286.624,214.499,280.912,216.931,280.361z"/>
		</g>
		<g>
			<g>
				<g>
					<path style="fill:#3C3E5D;" d="M222.518,254.923l-87.459-24.764c-1.687-0.478-1.666-2.876,0.03-3.324l130.496-34.462
						c0.316-0.083,0.649-0.075,0.961,0.023l91.193,28.916c1.676,0.531,1.573,2.936-0.141,3.323l-134.23,30.31
						C223.087,255.009,222.795,255.001,222.518,254.923z"/>
					<path style="fill:#69668B;" d="M136.881,186.113l127.565-27.92c0.262-0.057,0.534-0.053,0.794,0.014l97.263,24.812
						c0.763,0.195,1.297,0.882,1.297,1.669v37.169c0,0.805-0.558,1.503-1.343,1.681l-137.415,31.029
						c-1.077,0.243-2.102-0.576-2.102-1.681v-31.091c0-0.726-0.455-1.374-1.138-1.62l-85.138-30.759
						C135.039,188.829,135.194,186.482,136.881,186.113z"/>
					<g>
						<path style="fill:#F8F2EC;" d="M222.947,220.581v27.28l-84.382-21.936c0.917-1.207,1.658-2.495,2.253-3.814
							c0.225-0.499,0.418-0.982,0.595-1.497c0.757-2.108,1.159-4.313,1.32-6.55l0.064-1.658c0.016-1.996-0.129-3.975-0.419-5.907
							c-0.08-0.595-0.177-1.191-0.29-1.77c-0.676-3.653-1.738-7.001-2.736-9.624c-0.257-0.708-0.515-1.368-0.772-1.964
							c-0.934-2.269-1.658-3.637-1.658-3.637L222.947,220.581z"/>
					</g>
					<g>
						<g>
							<path style="fill:#332D29;" d="M222.947,222.513v1.706l-83.594-29.115c-0.257-0.708-0.515-1.368-0.772-1.964L222.947,222.513
								z"/>
						</g>
						<g>
							<path style="fill:#332D29;" d="M222.947,228.934v1.69l-80.568-24.125c-0.08-0.595-0.177-1.191-0.29-1.77L222.947,228.934z"/>
						</g>
						<g>
							<polygon style="fill:#332D29;" points="222.947,237.529 222.947,239.219 142.733,214.063 142.798,212.406 							"/>
						</g>
						<g>
							<path style="fill:#332D29;" d="M222.947,243.596v1.674l-82.129-23.16c0.225-0.499,0.418-0.982,0.595-1.497L222.947,243.596z"
								/>
						</g>
					</g>
					<path style="fill:#3C3E5D;" d="M357.863,185.548c-8.665,1.543-17.177,3.853-25.721,5.961
						c-8.544,2.108-17.086,4.226-25.628,6.34c-17.085,4.228-34.17,8.457-51.255,12.685c-9.643,2.387-19.285,4.765-28.949,7.067
						c-1.68,0.4-1.078,2.844,0.596,2.418c17.056-4.342,34.165-8.478,51.259-12.67c17.094-4.193,34.189-8.38,51.281-12.578
						c9.639-2.368,19.384-4.484,28.846-7.483C359.477,186.912,359.088,185.329,357.863,185.548z"/>
				</g>
				<path style="fill:#3C3E5D;" d="M352.592,200.004c-0.023-1.15-1.762-1.151-1.785,0c-0.102,4.992-0.348,10.035-0.113,15.024
					c0.061,1.295,1.951,1.296,2.012,0C352.94,210.039,352.694,204.996,352.592,200.004z"/>
				<path style="fill:#3C3E5D;" d="M358.622,213.572c-0.022-2.202-0.044-4.404-0.066-6.606c-0.044-4.405-0.109-8.808-0.188-13.212
					c-0.021-1.199-1.839-1.199-1.861,0c-0.079,4.404-0.144,8.807-0.188,13.212c-0.021,2.135-0.043,4.27-0.064,6.406
					c-0.022,2.193-0.215,4.503,0.167,6.672c0.179,1.019,1.852,1.019,2.031,0C358.823,217.938,358.643,215.701,358.622,213.572z"/>
				<path style="fill:#3C3E5D;" d="M237.468,233.983c-0.047-3.527,0.004-7.078-0.246-10.597c-0.086-1.206-1.788-1.207-1.873,0
					c-0.251,3.519-0.2,7.07-0.246,10.597c-0.047,3.547-0.109,7.065,0.271,10.597c0.126,1.172,1.697,1.173,1.823,0
					C237.576,241.048,237.515,237.53,237.468,233.983z"/>
				<path style="fill:#3C3E5D;" d="M231.269,236.076c-0.018-4.584-0.103-9.167-0.19-13.75c-0.023-1.215-1.863-1.216-1.886,0
					c-0.087,4.583-0.172,9.166-0.19,13.75c-0.018,4.578-0.151,9.175,0.058,13.75c0.063,1.385,2.087,1.385,2.15,0
					C231.42,245.251,231.287,240.654,231.269,236.076z"/>
			</g>
			<path style="fill:#E8C977;" d="M211.017,227.052l8.691,2.603c-8.973,5.734-1.579,9.714-8.532,19.708l-10.448-3.903
				C209.367,237.454,203.812,232.629,211.017,227.052z"/>
		</g>
		<g>
			<g>
				<path style="fill:#A15B3B;" d="M314.582,333.122l91.807-24.109c2.488-0.653,3.511-3.626,1.953-5.673l-66.774-87.69
					c-0.965-1.268-2.648-1.752-4.139-1.191l-80.18,30.158c-2.181,0.82-3.023,3.463-1.719,5.394l55.147,81.642
					C311.534,332.922,313.1,333.511,314.582,333.122z"/>
				<path style="fill:#F8F2EC;" d="M406.872,289.144c0,0-0.965,1.505-1.692,3.914c-0.111,0.37-0.218,0.772-0.323,1.194
					c-0.267,1.135-0.453,2.416-0.48,3.793c-0.009,0.347-0.005,0.714,0.019,1.078c0.036,0.96,0.172,1.96,0.426,2.988
					c0.072,0.327,0.166,0.661,0.272,1.004l0.001,0.01c0.279,0.888,0.642,1.776,1.111,2.682L315.8,328.269l-1.97-15.757
					L406.872,289.144z"/>
				<g>
					<g>
						<path style="fill:#332D29;" d="M405.18,293.057c-0.111,0.37-0.218,0.772-0.323,1.194l-89.35,26.819l-0.292-0.991
							L405.18,293.057z"/>
					</g>
					<g>
						<path style="fill:#332D29;" d="M404.378,298.044c-0.009,0.347-0.005,0.714,0.019,1.078l-89.121,24.955l-0.13-1.043
							L404.378,298.044z"/>
					</g>
					<g>
						<path style="fill:#332D29;" d="M315.458,325.533l89.366-23.423c0.072,0.327,0.166,0.661,0.272,1.004l0.001,0.01
							l-89.509,23.451L315.458,325.533z"/>
					</g>
				</g>
				<path style="fill:#A15B3B;" d="M406.239,289.397l-86.954,28.616c-1.017,0.337-1.833,1.11-2.223,2.103l-3.517,8.944
					c-1.058,2.691-4.71,3.095-6.331,0.697l-4.324-6.402l-16.64-24.64l-14.953-22.134l-4.673-6.924l-1.956-2.891l-0.168-0.252
					l-0.321-0.474l-0.361-0.542l-0.515-0.764l-2.008-2.979l-3.139-4.641l-0.594-0.89l-0.166-0.241l-2.085-3.085l-2.56-3.78
					c-0.54-0.792-0.734-1.764-0.549-2.71l3.613-18.321c0.253-1.248,1.132-2.27,2.317-2.691l79.162-28.366
					c1.465-0.529,3.098-0.052,4.048,1.172l4.636,5.964l6.208,7.97l1.55,1.998l2.572,3.296l25.375,32.598l3.81,4.893l2.424,3.116
					l12.219,15.702l7.809,10.035C409.474,285.742,408.596,288.62,406.239,289.397z"/>
				<path style="fill:#BD805A;" d="M306.102,306.251c-7.648-11.262-34.676-52.009-38.984-57.488
					c-1.214,1.37-1.467,4.203-1.467,4.203c8.252,12.488,38.34,57.172,38.252,57.787
					C303.903,310.753,304.775,307.856,306.102,306.251z"/>
				<path style="fill:#E8C977;" d="M327.69,313.097c-0.097-0.905-0.509-1.968-1.553-2.365c-1.273-0.485-2.288-0.533-3.549,0.017
					c-0.124,0.054-0.308,0.133-0.355,0.16c-0.234,0.071-0.472,0.136-0.709,0.194c-1.282,0.318-2.618,0.612-3.74,1.276
					c-2.419,1.431-3.988,3.927-5.409,6.117c-1.436,2.213-2.646,4.53-3.649,6.922c-1.094,2.61-1.657,5.553,0.475,7.868
					c1.523,1.654,4.94,0.303,4.789-1.758c-0.084-1.147-0.205-1.463,0.064-2.427c0.29-1.04,0.573-1.603,1.012-2.486
					c0.972-1.954,2.056-3.857,3.307-5.683c0.593-0.865,1.229-1.703,1.875-2.537c0.065-0.084,0.106-0.138,0.142-0.186
					c0.014-0.015,0.019-0.019,0.039-0.041c0.181-0.196,0.377-0.378,0.569-0.564c0.056-0.055,0.13-0.114,0.176-0.151
					c0.102-0.052,0.253-0.129,0.345-0.18c0.149-0.044,0.434-0.14,0.482-0.152c0.252-0.065,0.508-0.121,0.763-0.178
					c0.455-0.103,0.911-0.204,1.356-0.339C325.884,316.071,327.899,315.038,327.69,313.097z"/>
				<path style="fill:#E8C977;" d="M262.528,223.979c-3.283-1.23-5.805,1.621-6.904,4.338c-1.048,2.592-1.858,5.337-2.639,8.022
					c-0.759,2.612-1.492,5.315-1.791,8.025c-0.142,1.288-0.148,2.838,0.47,4.01c0.243,0.461,0.562,1.057,0.928,1.425
					c0.531,0.536,1.067,0.577,1.74,0.752c0.702,0.182,1.48-0.369,1.453-1.121c0.003,0.08-0.196,0.483-0.067,0.152
					c0.12-0.309,0.223-0.573,0.24-0.909c0.004-0.076-0.031-0.484-0.053-0.647c0.018-0.091,0.044-0.314,0.05-0.353
					c0.155-0.885,0.189-1.75,0.352-2.637c0.395-2.156,0.889-4.301,1.467-6.416c0.548-2.008,1.13-4.023,1.982-5.923
					c0.43-0.958,0.812-1.946,1.281-2.887c0.096-0.194,0.194-0.394,0.301-0.581c0.155-0.271,0.066-0.219,0.225-0.327
					c0.069-0.047,0.068-0.071,0.062-0.081c0.019,0.01,0.083,0.031,0.272,0.055c1.214,0.153,2.324-1.073,2.449-2.173
					C264.494,225.392,263.724,224.428,262.528,223.979z"/>
				<path style="fill:#E8C977;" d="M321.4,310.748c-0.736-1.473-1.714-2.781-2.649-4.134c-0.936-1.354-1.872-2.708-2.808-4.063
					c-1.823-2.637-3.647-5.273-5.476-7.907c-3.706-5.339-7.43-10.663-11.174-15.976c-7.511-10.659-14.961-21.364-22.337-32.117
					c-4.142-6.038-8.289-12.071-12.439-18.103c-0.668-0.971-2.178,0.074-1.505,1.04c7.426,10.667,14.869,21.321,22.258,32.013
					c7.414,10.728,14.694,21.548,22.098,32.282c2.067,2.995,4.134,5.99,6.207,8.982l3.109,4.487c1.058,1.528,2.047,3.11,3.312,4.475
					C320.583,312.359,321.783,311.515,321.4,310.748z"/>
				<path style="fill:none;stroke:#F0C05D;stroke-width:0;stroke-linecap:round;stroke-linejoin:round;" d="M272.044,244.075
					c0.021-0.003,0.017-0.035-0.004-0.032"/>
				<path style="fill:#E8C977;" d="M407.952,282.732c-0.569-1.09-1.171-2.164-1.804-3.218c-0.628-1.046-1.391-1.995-2.056-3.017
					c-0.001-0.007,0-0.014-0.001-0.021c-0.212-1.737-2.917-1.399-2.694,0.337c0.139,1.086-0.507,2.129-1.296,2.833
					c-0.515,0.46-1.106,0.819-1.738,1.094c-0.73,0.318-1.427,0.351-2.214,0.375c-0.989,0.03-1.35,1.504-0.563,2.048
					c0.701,0.484,1.223,0.944,1.51,1.772c0.246,0.711,0.309,1.496,0.155,2.234c-0.384,1.841-1.929,3.427-3.426,4.453
					c-0.526,0.361-0.656,1.132-0.346,1.664c0.348,0.598,0.96,0.749,1.6,0.574c2.551-0.699,5.1-1.399,7.644-2.124
					c1.974-0.562,4.408-0.919,5.74-2.656C409.983,287.098,408.963,284.669,407.952,282.732z"/>
				<path style="fill:#E8C977;" d="M348.471,206.272c-1.364-2.046-2.858-4.013-4.431-5.903c-0.805-0.968-1.622-1.934-2.473-2.863
					c-0.706-0.771-1.49-1.361-2.56-1.484c-1.032-0.118-2.049,0.222-2.995,0.593c-1.185,0.465-2.363,0.951-3.544,1.427
					c-1.89,0.761-5.792,2.364-7.256,2.974c-1.841,0.766-0.911,3.374,0.66,3.273c2.598-0.166,5.326-0.371,7.778,0.679
					c1.962,0.84,3.639,2.56,3.822,4.752c0.133,1.595,2.438,1.827,3.023,0.407c0.387-0.938,0.945-2.352,1.93-2.815
					c1.269-0.597,2.731,0.551,3.712,1.247C347.667,209.646,349.51,207.831,348.471,206.272z"/>
				<path style="fill:#E8C977;" d="M273.011,224.111c0.33-0.67,0.592-1.324,1.062-1.912c0.445-0.557,0.392-1.17,0.086-1.639
					c-0.007-0.021-0.011-0.043-0.019-0.063c-0.304-0.714-1.029-0.88-1.707-0.687c-2.553,0.727-5.095,1.488-7.626,2.286
					c-1.312,0.414-2.612,0.852-3.908,1.312c-1.202,0.427-2.355,1.005-2.504,2.434c-0.135,1.292,0.715,2.316,1.405,3.306
					c0.735,1.055,1.448,2.127,2.172,3.19c1.41,2.071,2.795,4.273,4.705,5.928c1.426,1.235,3.462-0.6,2.79-2.199
					c-0.282-0.671-0.558-1.35-0.691-2.023c-0.109-0.552-0.158-1.184,0.016-1.529c0.534-1.057,2.277-0.968,3.412-0.847
					c1.363,0.146,2.594-1.65,1.542-2.762c-0.794-0.839-1.32-1.88-1.249-3.06C272.533,225.227,272.738,224.666,273.011,224.111z"/>
				<path style="fill:#E8C977;" d="M338.81,307.863c-1.878-0.58-3.64-0.23-5.548-0.374c-1.854-0.14-2.083-1.689-1.793-3.283
					c0.365-2.007-2.207-2.706-3.394-1.421c-1.691,1.831-4.576,2.542-6.913,1.657c-1.237-0.468-2.335-1.231-3.454-1.922
					c-1.31-0.81-2.637-1.469-4.097-1.966c-1.18-0.402-2.145,0.433-2.181,1.454c-0.172,0.373-0.184,0.833,0.086,1.283
					c1.569,2.621,3.172,5.213,4.861,7.759c1.437,2.165,2.92,4.651,5.648,5.258c2.662,0.593,5.594-0.798,8.064-1.646
					c2.935-1.008,5.834-2.112,8.7-3.301C340.198,310.776,340.453,308.37,338.81,307.863z"/>
			</g>
			<g>
				<path style="fill:#BD805A;" d="M345.337,239.856c6.61,11.504,4.435,23.338-4.857,26.433
					c-9.292,3.095-22.183-3.722-28.792-15.225c-6.61-11.503-4.435-23.338,4.857-26.433
					C325.837,221.536,338.727,228.352,345.337,239.856z"/>
				<g>
					<path style="fill:#BD805A;" d="M371.617,269.517c-0.494-0.867-1.038-1.698-1.582-2.53c-6.746,2.099-13.473,4.262-20.172,6.508
						c-6.64,2.226-13.393,4.348-19.887,6.997c0.773,0.879,1.605,1.73,2.459,2.622c0.175,0.183,0.347,0.371,0.521,0.555
						c6.098-1.962,12.114-4.237,18.184-6.267c7.009-2.344,14.045-4.604,21.105-6.788
						C372.035,270.249,371.825,269.883,371.617,269.517z"/>
					<path style="fill:#BD805A;" d="M369.459,280.998c-0.641-1.108-1.335-2.186-2.044-3.252c-1.863,0.504-3.703,1.19-5.532,1.773
						c-2.008,0.64-4.016,1.28-6.023,1.919c-3.983,1.269-7.965,2.538-11.947,3.807c0.858,1.161,1.686,2.344,2.497,3.54
						c3.531-1.125,7.062-2.25,10.593-3.376l6.255-1.993c2.122-0.676,4.318-1.253,6.382-2.092
						C369.579,281.216,369.521,281.106,369.459,280.998z"/>
				</g>
			</g>
			<path style="fill:#A74363;" d="M321.342,322.344l7.493-2.098c0,0,3.026,2.125,3.373,6.404c0.284,3.499,4.478,6.207,4.478,6.207
				l-6.292,4.034c0,0-4.545-2.197-4.955-7.569C325.118,325.125,321.342,322.344,321.342,322.344z"/>
		</g>
		<g>
			<g>
				<path style="fill:#E8C977;" d="M172.078,190.148l86.445,26.009c0.653,0.197,1.352,0.175,1.991-0.06l94.566-34.827
					c1.61-0.593,1.619-2.866,0.015-3.472l-87.437-33.072l-92.841,8.104c-1.491,0.13-2.668,1.319-2.784,2.811l-2.397,30.942
					C169.511,188.198,170.527,189.682,172.078,190.148z"/>
				<path style="fill:#E8C977;" d="M171.361,164.324l0.71-9.167c0.098-1.265,0.967-2.338,2.184-2.697l100.727-29.718
					c0.278-0.082,0.574-0.085,0.853-0.008l81.63,22.357c1.477,0.405,1.547,2.473,0.101,2.977l-100.71,35.085l-76.459-23.862
					l-2.367,6.482C176.657,169.534,171.051,168.318,171.361,164.324z"/>
				<path style="fill:#FAEBC7;" d="M325.712,147.641c-15.874-6.126-32.462-11.633-48.734-16.81
					c-2.216-0.705-4.602-0.727-6.824-0.042c-9.549,2.943-18.498,6.132-28.208,9.008c-7.157,2.12-14.333,4.248-21.277,6.971
					c-1.525,0.598-1.451,2.782,0.108,3.283c18.095,5.814,35.993,11.804,54.197,17.352c2.295,0.699,4.75,1.4,7.054,0.732
					l43.684-17.25C327.184,150.305,327.188,148.21,325.712,147.641z"/>
				<path style="fill:#FFFFFF;" d="M355.553,177.968l-95.748,33.842l-84.108-25.758l2.845-27.351l78.318,24.454l7.216-2.508
					c0.017-0.015,0.017-0.015,0.017-0.015l93.785-32.671C357.877,147.961,343.44,165.956,355.553,177.968z"/>
				<path style="fill:#F8F2EC;" d="M355.553,177.968l-95.748,33.842c-7.742-18.421-0.88-29.373-0.88-29.373
					c0.017-0.015,98.952-34.476,98.952-34.476S343.44,165.956,355.553,177.968z"/>
				<g>
					<defs>
						<path id="SVGID_1_" d="M355.553,177.968l-95.748,33.842l-84.108-25.758l2.845-27.351l78.318,24.454l7.216-2.508
							c0.017-0.015,0.017-0.015,0.017-0.015l93.785-32.671C357.877,147.961,343.44,165.956,355.553,177.968z"/>
					</defs>
					<clipPath id="SVGID_00000071521589348494365830000010309590221698829735_">
						<use xlink:href="#SVGID_1_"  style="overflow:visible;"/>
					</clipPath>
					<g style="clip-path:url(#SVGID_00000071521589348494365830000010309590221698829735_);">
						<g>
							<polygon style="fill:#332D29;" points="257.094,188.024 256.836,187.941 175.217,161.531 175.712,159.999 257.073,186.326 
								361.071,149.782 361.604,151.299 							"/>
						</g>
						<g>
							<polygon style="fill:#332D29;" points="258.324,208.655 258.059,208.57 173.688,181.269 174.183,179.737 258.289,206.953 
								359.529,169.524 360.087,171.033 							"/>
						</g>
						<g>
							<polygon style="fill:#332D29;" points="256.568,194.762 170.922,167.611 171.408,166.076 256.554,193.068 364.758,156.842 
								365.27,158.369 							"/>
						</g>
						<g>
							<polygon style="fill:#332D29;" points="256.856,201.136 256.602,201.055 170.471,173.4 170.963,171.867 256.839,199.441 
								364.304,162.634 364.826,164.157 							"/>
						</g>
					</g>
				</g>
			</g>
			<path style="fill:#D56327;" d="M183.654,171.652l8.548,2.71c-3.549,1.328-4.657,6.793-5.637,14.431
				c-0.755,5.885-4.028,9.529-4.028,9.398c0-0.13-8.363-3.259-8.363-3.259s3.296-4.031,4.575-10.143
				C179.876,179.4,179.966,173.885,183.654,171.652z"/>
		</g>
		<g>
			<g>
				<g>
					<path style="fill:#A74363;" d="M289.786,186.214l83.721-29.931c1.478-0.528,1.428-2.635-0.075-3.087
						c-22.981-6.906-121.82-36.616-121.412-36.632c0.381-0.015-59.208,20.72-80.217,28.028c-2.328,0.81-2.286,4.112,0.059,4.872
						l113.511,36.816C286.809,186.746,288.362,186.723,289.786,186.214z"/>
					<path style="fill:#A74363;" d="M253.337,103.058l-85.55,25.549c-2.294,0.685-3.831,2.837-3.736,5.229l0.384,9.618
						c0.087,2.192,1.532,4.098,3.619,4.775l114.424,37.112c2.48,0.804,5.002-1.107,4.898-3.712l-0.306-7.666
						c-0.09-2.244,1.262-4.296,3.359-5.101l79.644-30.552c1.166-0.447,1.094-2.12-0.105-2.466l-113.678-32.801
						C255.324,102.766,254.299,102.77,253.337,103.058z"/>
					<path style="fill:#BA637F;" d="M279.123,152.23l49.431-17.672c0.871-0.311,0.84-1.554-0.046-1.821
						c-12.286-3.692-61.127-18.44-70.221-21.186c-0.95-0.287-1.959-0.267-2.896,0.061c-6.698,2.344-35.027,12.255-45.927,16.046
						c-1.373,0.477-1.351,2.426,0.032,2.874l67.021,21.737C277.366,152.544,278.282,152.53,279.123,152.23z"/>
					<path style="fill:#F8F2EC;" d="M371.553,153.857l-80.529,28.609c-1.583,0.562-3.243-0.383-3.626-1.928
						c-0.051-0.179-0.077-0.37-0.089-0.575l-0.026-0.728l-0.064-1.532l-0.051-1.34l-0.115-2.732c0-0.128,0-0.255,0.013-0.383
						c0.013-0.511,0.115-1.008,0.281-1.468c0.472-1.264,1.455-2.298,2.77-2.796l78.588-30.153c0,0-0.396,1.787-0.523,4.174
						c-0.025,0.434-0.051,0.894-0.051,1.366c0,0.651,0.013,1.34,0.077,2.043c0.026,0.434,0.077,0.868,0.153,1.302
						c0.153,1.047,0.409,2.081,0.804,3.013c0.166,0.396,0.345,0.779,0.574,1.136C370.2,152.644,370.8,153.321,371.553,153.857z"/>
					<g>
						<g>
							<path style="fill:#332D29;" d="M368.183,143.006c-0.025,0.434-0.051,0.894-0.051,1.366l-81.065,28.877
								c0.013-0.511,0.115-1.008,0.281-1.468L368.183,143.006z"/>
						</g>
						<g>
							<path style="fill:#332D29;" d="M368.362,147.716l-81.141,29.988l-0.051-1.34l81.039-29.949
								C368.234,146.848,368.285,147.282,368.362,147.716z"/>
						</g>
						<g>
							<path style="fill:#332D29;" d="M369.741,151.865l-82.341,28.673c-0.051-0.179-0.077-0.37-0.089-0.575l-0.026-0.728
								l81.882-28.507C369.332,151.125,369.511,151.508,369.741,151.865z"/>
						</g>
					</g>
				</g>
				<path style="fill:#BA637F;" d="M281.816,166.192c-7.147-2.737-14.497-4.925-21.788-7.244
					c-7.344-2.336-14.689-4.666-22.031-7.009c-14.632-4.67-29.26-9.354-43.882-14.056c-8.196-2.635-16.394-5.269-24.592-7.897
					c-1.2-0.384-1.795,1.481-0.594,1.862c14.64,4.646,29.286,9.274,43.93,13.906c14.644,4.632,29.269,9.326,43.898,14.004
					c8.195,2.621,16.357,5.438,24.693,7.582C282.203,167.536,282.543,166.471,281.816,166.192z"/>
				<g>
					<path style="fill:#BA637F;" d="M257.089,169.266c0.252-1.669,0.581-3.711,1.329-5.466c-8.726-2.768-19.333-6.186-24.491-7.793
						c-0.301-0.094-0.555-0.033-0.761,0.1c-0.128,0.342-0.245,0.688-0.341,1.038c-0.015,0.056-0.077,0.315-0.098,0.392
						c-0.035,0.173-0.069,0.346-0.099,0.519c-0.077,0.454-0.136,0.91-0.18,1.368c-0.093,0.967-0.118,1.94-0.089,2.913
						c0.003,0.107,0.019,0.377,0.022,0.445c0.014,0.185,0.028,0.37,0.046,0.554c0.047,0.487,0.107,0.973,0.182,1.456
						c0.121,0.786,0.29,1.564,0.49,2.334c4.731,1.686,9.396,3.387,14.045,4.974c1.273,0.435,5.766,1.961,10.204,3.466
						C256.852,173.51,256.777,171.334,257.089,169.266z"/>
					<path style="fill:#BA637F;" d="M269.254,167.178c-2.041-0.611-5.034-1.544-8.458-2.625c-0.199,0.453-0.356,0.921-0.49,1.342
						c-0.418,1.307-0.681,2.659-0.882,4.015c-0.282,1.904-0.109,3.843,0.402,5.692c0.083,0.301,0.176,0.598,0.267,0.896
						c3.243,1.099,6.06,2.053,7.016,2.374c0.552,0.185,1.103,0.37,1.654,0.554c-0.243-1.617-0.36-3.25-0.391-4.859
						C268.326,172.174,268.522,169.529,269.254,167.178z"/>
					<path style="fill:#BA637F;" d="M186.605,140.217c-2.041-0.611-5.033-1.544-8.458-2.625c-0.2,0.453-0.356,0.921-0.49,1.342
						c-0.418,1.307-0.681,2.659-0.882,4.015c-0.282,1.905-0.108,3.843,0.402,5.692c0.083,0.301,0.176,0.598,0.267,0.896
						c3.243,1.099,6.06,2.053,7.016,2.374c0.552,0.185,1.103,0.37,1.654,0.554c-0.243-1.618-0.36-3.25-0.391-4.859
						C185.677,145.213,185.873,142.568,186.605,140.217z"/>
					<path style="fill:#BA637F;" d="M228.135,157.219c0.093-0.545,0.21-1.106,0.358-1.665c-4.702-1.725-9.525-3.096-14.317-4.554
						c-5.224-1.589-10.447-3.178-15.671-4.767c-2.992-0.91-5.98-1.836-8.982-2.712c-0.125-0.036-0.236-0.033-0.347-0.03
						c-0.048,0.227-0.098,0.455-0.147,0.681c-0.097,0.443-0.179,0.888-0.249,1.335c0.043,0.019,0.07,0.05,0.119,0.065
						c10.456,3.321,20.986,6.425,31.48,9.628c2.569,0.784,5.135,1.513,7.738,2.148C228.123,157.305,228.128,157.261,228.135,157.219
						z"/>
					<path style="fill:#BA637F;" d="M227.773,159.963c-0.521-0.149-1.044-0.288-1.554-0.43c-1.377-0.382-2.755-0.761-4.129-1.156
						c-2.747-0.789-5.484-1.61-8.217-2.447c-5.465-1.673-10.909-3.419-16.36-5.134c-2.989-0.941-5.983-1.862-8.981-2.773
						c-0.027,0.616-0.037,1.232-0.009,1.85c0.01,0.212,0.037,0.424,0.054,0.637c10.551,3.202,21.19,6.128,31.685,9.509
						c1.562,0.503,3.121,1.013,4.678,1.532c0.874,0.291,1.771,0.621,2.679,0.884C227.636,161.611,227.691,160.786,227.773,159.963z"
						/>
				</g>
			</g>
			<path style="fill:#75B87A;" d="M291.911,175.971l9.283-3.431c6.353,1.816,4.13,7.23,8.868,12.939l-9.103,2.942
				C298.4,185.073,298.43,175.444,291.911,175.971z"/>
		</g>
		<g>
			<g>
				<g>
					<path style="fill:#3C3E5D;" d="M68.277,358.86l84.514-49.176c2.154-1.253,4.728-1.567,7.12-0.869l137.623,40.2
						c2.14,0.625,2.49,3.51,0.561,4.628l-85.456,49.538c-2.163,1.254-4.747,1.562-7.145,0.85L68.831,363.482
						C66.7,362.85,66.356,359.977,68.277,358.86z"/>
					<path style="fill:#FFFFFF;" d="M222.498,320.206c-24.46-25.64-63.204-25.64-63.204-25.64l-88.198,46.833l8.267,1.256
						l-9.212,4.056l1.165,11.07l74.745,24.026v-12.296L222.498,320.206z"/>
					<path style="fill:#FFFFFF;" d="M222.498,320.206l-76.436,49.306v12.296l60.696,15.116l84.619-50.75V335.38l-10.714-3.239
						l9.5-7.198C290.162,324.943,266.184,305.869,222.498,320.206z"/>
					<g>
						<defs>
							<path id="SVGID_00000072972301377293172000000017985583287866152124_" d="M279.624,332.141l9.5-7.198
								c0,0-23.978-19.074-67.664-4.738c-24.46-25.64-63.204-25.64-63.204-25.64l-88.198,46.833l8.267,1.256l-9.212,4.056
								l1.165,11.07l74.745,24.026l60.696,15.116l84.619-50.75V335.38L279.624,332.141z"/>
						</defs>
						<clipPath id="SVGID_00000181085553247888414300000014007744132454839452_">
							<use xlink:href="#SVGID_00000072972301377293172000000017985583287866152124_"  style="overflow:visible;"/>
						</clipPath>
						<g style="clip-path:url(#SVGID_00000181085553247888414300000014007744132454839452_);">
							<g>
								<polygon style="fill:#332D29;" points="145.791,384.119 144.258,384.119 144.258,369.093 221.045,319.561 221.876,320.849 
									145.791,369.929 								"/>
							</g>
							<g>
								<path style="fill:#332D29;" d="M144.544,370.108c-29.122-23.352-74.108-27.902-74.559-27.946l0.147-1.527
									c0.455,0.043,45.887,4.634,75.372,28.278L144.544,370.108z"/>
							</g>
							<g>
								<path style="fill:none;stroke:#282440;stroke-miterlimit:10;" d="M69.114,346.711"/>
							</g>
							<g>
								<path style="fill:#332D29;" d="M144.626,370.165c-36.86-22.421-81.966-22.689-82.417-22.689v-1.533
									c0.455,0,45.978,0.262,83.214,22.913L144.626,370.165z"/>
							</g>
							<g>
								<path style="fill:#332D29;" d="M205.873,394.281l-61.04-15.766c-0.552-0.196-48.894-17.506-80.37-22.302l0.231-1.515
									c31.624,4.818,80.105,22.178,80.591,22.353l60.358,15.587l87.174-51.241l0.776,1.321L205.873,394.281z"/>
							</g>
							<g>
								<path style="fill:#332D29;" d="M206.597,381.992l-0.448-0.457c-17.792-18.089-58.543-12.309-60.744-11.382l-0.253-0.603
									l-0.115-0.045l-0.71,0.325l0.283-0.984c1.309-0.9,43.415-7.118,62.178,11.162l81.905-55.698l0.862,1.267L206.597,381.992z"
									/>
							</g>
							<g>
								<path style="fill:#332D29;" d="M205.078,384.971l-0.347-0.145c-38.255-16.021-59.437-14.56-59.646-14.551l-0.122-1.527
									c0.215-0.018,21.582-1.514,60.012,14.519l89.418-50.809l0.758,1.333L205.078,384.971z"/>
							</g>
							<g>
								<path style="fill:#332D29;" d="M205.826,389.6l-0.336-0.124c-0.332-0.124-33.56-12.381-60.283-15.159l-0.3-0.096
									c-33.8-19.254-79.281-21.275-79.737-21.293l0.061-1.533c0.458,0.019,46.179,2.045,80.295,21.414
									c25.435,2.676,56.581,13.804,60.16,15.105l90.899-51.853l0.761,1.333L205.826,389.6z"/>
							</g>
						</g>
					</g>
				</g>
				<g>
					<g>
						<g>
							<path style="fill:#F8F2EC;" d="M253.899,323.287c2.03,0.303,4.042,0.74,6.001,1.355c0.92,0.289,1.828,0.615,2.712,1.002
								c0.383,0.168,0.754,0.362,1.124,0.556c0.943-0.612,1.891-1.218,2.846-1.809c-1.592-1.147-3.731-1.818-5.572-2.377
								c-2.077-0.631-4.214-1.018-6.366-1.283c-4.271-0.524-8.599-0.504-12.895-0.426c-5.648,0.103-11.362,0.216-16.969,0.974
								c-1.063,0.597-2.124,1.2-3.183,1.804c-0.979,0.6-1.959,1.199-2.936,1.801c7.406-1.748,15.072-2.141,22.675-2.202
								C245.53,322.649,249.742,322.666,253.899,323.287z"/>
							<path style="fill:#F8F2EC;" d="M232.652,329.09c4.239,0.128,8.485,0.426,12.668,1.149c2.986,0.516,5.785,1.37,8.587,2.332
								c1.137-0.746,2.28-1.483,3.423-2.219c-3.536-1.531-7.507-2.363-11.253-3.005c-4.363-0.748-8.786-1.091-13.207-1.228
								c-4.399-0.136-8.804-0.09-13.203-0.02c-1.05,0.017-2.101,0.052-3.151,0.108c-1.804,1.112-3.609,2.224-5.412,3.337
								c-0.143,0.089-0.285,0.18-0.428,0.268c3.024-0.58,6.123-0.706,9.215-0.75C224.145,329.002,228.401,328.962,232.652,329.09z"
								/>
							<path style="fill:#F8F2EC;" d="M224.045,335.038c6.918,0.411,14.142,0.906,20.498,3.831c0.851-0.585,1.703-1.166,2.557-1.746
								c-7.018-3.462-14.908-4.135-22.64-4.572c-6.006-0.339-12.111-0.661-18.101-0.029c-1.701,1.081-3.396,2.173-5.089,3.268
								C208.72,334.131,216.457,334.587,224.045,335.038z"/>
							<path style="fill:#F8F2EC;" d="M199.819,341.203c4.168,0.072,8.337,0.325,12.483,0.754c4.032,0.417,8.081,0.961,12.048,1.807
								c3.026,0.645,5.95,1.583,8.41,3.429c0.792-0.575,1.596-1.133,2.39-1.704c-2.627-2.252-5.994-3.454-9.34-4.187
								c-4.125-0.904-8.368-1.407-12.567-1.819c-4.46-0.438-8.942-0.677-13.424-0.67c-1.078,0.002-2.178,0.017-3.285,0.049
								c-1.288,0.837-2.575,1.673-3.865,2.506c-0.081,0.052-0.163,0.103-0.245,0.156C194.87,341.29,197.318,341.16,199.819,341.203z
								"/>
							<path style="fill:#F8F2EC;" d="M205.715,347.878c4.145,0.719,8.312,1.642,12.299,2.998c1.679,0.571,3.32,1.258,4.85,2.159
								c0.362,0.213,0.688,0.459,1.011,0.708c0.844-0.629,1.694-1.25,2.539-1.877c-0.606-0.442-1.227-0.838-1.787-1.178
								c-1.618-0.982-3.377-1.722-5.161-2.342c-4.144-1.441-8.515-2.347-12.837-3.052c-4.564-0.745-9.169-1.161-13.793-1.238
								c-1.5-0.025-2.997,0.006-4.494,0.066c-1.195,0.761-2.387,1.526-3.585,2.282c0.404-0.017,0.806-0.032,1.202-0.034
								c2.139-0.011,4.281,0.005,6.418,0.089C196.846,346.637,201.309,347.113,205.715,347.878z"/>
							<path style="fill:#F8F2EC;" d="M208.773,357.036c1.792,0.589,3.564,1.236,5.251,2.085c0.521,0.262,1.029,0.55,1.529,0.85
								c0.808-0.606,1.618-1.209,2.427-1.815c-0.746-0.469-1.528-0.879-2.246-1.241c-1.771-0.891-3.641-1.586-5.525-2.195
								c-4.259-1.378-8.602-2.566-12.975-3.525c-5.579-1.223-11.263-1.972-16.95-1.973c-1.402,0.879-2.804,1.758-4.207,2.635
								c6.866-0.468,13.786,0.349,20.502,1.838C200.69,354.607,204.772,355.72,208.773,357.036z"/>
						</g>
						<path style="fill:#F8F2EC;" d="M204.807,365.391c0.693,0.33,1.375,0.699,2.056,1.073c0.225-0.168,0.451-0.338,0.676-0.505
							c0.77-0.572,1.537-1.149,2.306-1.723c-1.215-0.615-2.469-1.177-3.659-1.72c-2.133-0.974-4.305-1.862-6.51-2.659
							c-4.358-1.577-8.85-2.783-13.426-3.526c-5.02-0.816-10.173-1.115-15.27-0.766c-1.225,0.899-2.453,1.792-3.678,2.69
							c6.217-0.661,12.503-0.42,18.69,0.797c4.331,0.852,8.581,2.11,12.7,3.694C200.765,363.543,202.802,364.435,204.807,365.391z"
							/>
					</g>
					<path style="fill:#F8F2EC;" d="M147.901,323.787c7.183,2.982,14.038,6.793,20.325,11.373c1.743,1.27,3.434,2.608,5.078,4.002
						c0.153,0.13,0.301,0.267,0.454,0.398c1.124-0.731,2.252-1.457,3.379-2.184c-0.172-0.141-0.341-0.281-0.502-0.419
						c-1.593-1.371-3.235-2.681-4.909-3.95c-3.233-2.451-6.618-4.7-10.133-6.727c-6.99-4.03-14.509-7.202-22.312-9.265
						c-3.023-0.799-6.152-1.523-9.293-1.953c-1.424,0.717-2.842,1.449-4.263,2.172c3.719,0.899,7.461,1.627,11.144,2.691
						C140.605,321.005,144.307,322.295,147.901,323.787z"/>
					<g>
						<path style="fill:#F8F2EC;" d="M203.407,319.344c0.541,0.421,1.063,0.865,1.585,1.309c1.211-0.66,2.423-1.32,3.642-1.966
							c-2.09-1.992-4.64-3.693-6.979-5.179c-3.137-1.993-6.447-3.708-9.852-5.194c-7.294-3.181-14.998-5.206-22.744-6.941
							c-2.72-0.609-5.454-1.153-8.191-1.68c-1.191,0.612-2.375,1.237-3.569,1.843c14.278,3.004,28.669,6.396,41.126,14.329
							C200.13,316.952,201.811,318.103,203.407,319.344z"/>
						<path style="fill:#F8F2EC;" d="M196.166,325.525c0.025,0.016,0.051,0.032,0.076,0.047c1.253-0.725,2.509-1.442,3.77-2.154
							c-0.062-0.041-0.127-0.085-0.188-0.125c-1.824-1.205-3.713-2.323-5.613-3.405c-3.775-2.149-7.667-4.078-11.658-5.793
							c-7.93-3.408-16.237-5.91-24.714-7.529c-2.698-0.515-5.418-0.909-8.149-1.203c-1.42,0.71-2.838,1.424-4.259,2.131
							c15.704,2.311,30.823,7.006,44.824,14.604C192.258,323.185,194.229,324.327,196.166,325.525z"/>
						<path style="fill:#F8F2EC;" d="M175.148,328.309c1.915,1.212,3.787,2.498,5.589,3.873c0.649,0.495,1.313,1.003,1.969,1.525
							c1.135-0.706,2.272-1.407,3.412-2.105c-0.493-0.413-0.979-0.834-1.482-1.234c-1.648-1.312-3.342-2.569-5.083-3.756
							c-3.472-2.368-7.128-4.465-10.911-6.295c-7.578-3.667-15.673-6.246-23.922-7.89c-2.266-0.452-4.567-0.852-6.879-1.16
							c-1.761,0.875-3.518,1.758-5.277,2.636c7.104,1.125,14.121,2.295,21.022,4.485
							C161.141,320.785,168.447,324.068,175.148,328.309z"/>
						<path style="fill:#F8F2EC;" d="M160.073,345.005c0.728,0.612,1.422,1.275,2.115,1.939c1.142-0.747,2.284-1.495,3.426-2.243
							c-0.73-0.662-1.496-1.291-2.211-1.909c-1.48-1.278-3.012-2.493-4.578-3.664c-3.119-2.332-6.431-4.413-9.85-6.276
							c-6.869-3.743-14.199-6.553-21.738-8.616c-3.441-0.941-6.931-1.694-10.444-2.32c-1.326,0.69-2.649,1.385-3.975,2.077
							c0.176,0.182,0.417,0.326,0.747,0.391c14.705,2.914,29.281,8.117,41.586,16.83
							C156.844,342.412,158.487,343.672,160.073,345.005z"/>
						<path style="fill:#F8F2EC;" d="M151.315,352.625c0.31,0.295,0.625,0.594,0.938,0.894c1.089-0.728,2.177-1.456,3.267-2.182
							c-1.316-1.314-2.665-2.594-4.064-3.819c-3.312-2.9-6.846-5.563-10.544-7.95c-7.407-4.781-15.569-8.443-24.081-10.745
							c-3.118-0.843-6.282-1.487-9.473-1.972c-1.595,0.844-3.183,1.699-4.773,2.551c15.785,2.052,31.227,8.705,43.592,18.716
							C147.949,349.551,149.664,351.054,151.315,352.625z"/>
						<path style="fill:#F8F2EC;" d="M114.262,341.18c1.009-0.59,2.013-1.19,3.02-1.785c-4.238-1.645-8.571-3.047-12.984-4.166
							c-3.084-0.782-6.201-1.407-9.34-1.902c-1.485,0.741-2.969,1.484-4.447,2.237c7.696,1.424,15.306,3.508,22.663,6.26
							C113.538,341.611,113.898,341.392,114.262,341.18z"/>
					</g>
				</g>
			</g>
			<path style="fill:#A4335A;" d="M225.266,319.025c-0.768,0.826-1.652,1.477-2.585,2.206c-1.263,0.982-2.517,1.953-3.819,2.876
				c-2.235,1.574-4.47,3.148-6.705,4.723c-4.587,3.246-9.29,6.326-13.945,9.465c-7.745,5.248-15.451,10.476-23.74,14.849
				c-3.819,2.021-7.687,3.955-11.467,6.054c-1.876,1.049-3.732,2.138-5.539,3.294c-0.933,0.593-1.856,1.205-2.76,1.837
				c-0.398,0.282-0.787,0.564-1.176,0.845c-0.039,0.029-0.301,0.224-0.437,0.321c-0.097,0.078-0.224,0.175-0.224,0.175
				c-1.71,1.341-3.401,2.75-4.859,4.363c-0.146,0.165-0.282,0.33-0.428,0.505c-0.058,0.078-0.146,0.194-0.175,0.233
				c-0.292,0.437-0.554,0.884-0.797,1.351c0,0-0.058,0.146-0.107,0.243c-0.049,0.146-0.136,0.428-0.146,0.466
				c-0.039,0.126-0.185,0.836-0.204,0.836c-0.486,3.926,0.972,7.842,0.525,11.787c-0.564,5.034-3.751,8.503-7.59,11.506
				c-1.273,1.001-2.633,2.002-4.052,2.945c-0.535-0.117-1.069-0.224-1.603-0.34c-0.428-0.136-0.855-0.262-1.283-0.379
				c-1.866-0.768-3.732-1.535-5.627-2.225c-0.476-0.165-0.952-0.321-1.428-0.486c1.876-1.001,3.819-1.866,5.636-2.983
				c1.001-0.622,1.973-1.273,2.915-1.973c0.078-0.049,0.117-0.078,0.136-0.097c0.058-0.049,0.107-0.087,0.194-0.155
				c0.165-0.126,0.321-0.262,0.486-0.389c0.476-0.389,0.952-0.797,1.409-1.205c0.408-0.369,0.807-0.738,1.186-1.127
				c0.253-0.253,0.496-0.525,0.739-0.797c-0.029,0.039-0.049,0.068-0.049,0.078c0.02-0.02,0.058-0.058,0.126-0.165
				c0.33-0.447,0.622-0.943,0.845-1.458c-0.029,0,0.223-0.826,0.262-0.991c0.029-0.117,0.049-0.194,0.068-0.253
				c0-0.058,0-0.136,0.01-0.253c0.01-0.185,0.019-0.369,0.029-0.564c0.019-0.573,0-1.147-0.029-1.71
				c-0.068-1.108-0.214-2.206-0.35-3.304c-0.535-4.373-0.467-8.765,2.216-12.497c2.702-3.751,6.54-6.637,10.31-9.251
				c7.036-4.888,14.868-8.445,22.36-12.546c8.338-4.577,16.141-10.068,24.032-15.344c4.13-2.77,8.241-5.568,12.429-8.25
				c2.089-1.341,4.159-2.711,6.278-4.023l1.253-0.857C217.588,316.361,222.894,319.383,225.266,319.025z"/>
		</g>
	</g>
	<g>
		<path style="fill:#FFFFFF;" d="M107.71,206.494c0.153-1.19-0.735-2.04-1.868-2.14c-3.076-0.272-5.402-2.705-6.772-5.287
			c-1.822-3.436-2.283-7.442-2.771-11.243c-0.087-0.682-0.66-0.986-1.262-1.004c-0.853-0.605-2.372-0.45-2.534,0.791
			c-0.272,2.091-0.182,4.223-0.432,6.324c-0.248,2.085-0.652,4.196-1.435,6.152c-1.227,3.068-3.583,5.742-6.889,6.496
			c-1.373,0.313-1.238,2.076-0.342,2.655c0.224,0.254,0.559,0.416,1.006,0.395c3.481-0.158,5.877,2.648,7.322,5.491
			c0.815,1.604,1.44,3.311,2.006,5.016c0.292,0.88,0.562,1.768,0.811,2.661c0.284,1.015,0.369,2.324,1.186,3.052
			c0.903,0.803,2.196,0.438,2.578-0.698c0.168-0.499,0.105-1.043-0.031-1.586c0.439-3.185,1.211-6.339,2.314-9.355
			c0.51-1.394,1.225-2.731,2.317-3.757c0.487-0.457,1.039-0.83,1.622-1.154c0.61-0.34,1.396-0.512,1.943-0.927
			c0.325-0.247,0.583-0.548,0.732-0.893C107.462,207.201,107.661,206.875,107.71,206.494z"/>
		<path style="fill:#FFFFFF;" d="M404.481,182.729c0.137-1.064-0.658-1.824-1.671-1.914c-2.752-0.243-4.832-2.42-6.058-4.73
			c-1.63-3.073-2.042-6.657-2.479-10.057c-0.078-0.61-0.59-0.882-1.129-0.898c-0.763-0.541-2.122-0.402-2.267,0.707
			c-0.243,1.87-0.163,3.778-0.387,5.657c-0.222,1.866-0.583,3.753-1.283,5.503c-1.098,2.744-3.206,5.137-6.162,5.811
			c-1.229,0.28-1.107,1.857-0.306,2.375c0.2,0.227,0.5,0.372,0.9,0.354c3.114-0.142,5.258,2.369,6.55,4.912
			c0.729,1.435,1.288,2.961,1.795,4.487c0.262,0.787,0.503,1.581,0.726,2.38c0.254,0.908,0.33,2.079,1.062,2.731
			c0.807,0.719,1.965,0.392,2.306-0.624c0.15-0.447,0.094-0.933-0.028-1.419c0.393-2.849,1.083-5.671,2.07-8.369
			c0.456-1.247,1.096-2.443,2.073-3.361c0.436-0.409,0.929-0.742,1.451-1.033c0.546-0.304,1.249-0.458,1.738-0.83
			c0.291-0.221,0.522-0.491,0.655-0.799C404.259,183.362,404.437,183.07,404.481,182.729z"/>
		<path style="fill:#FFFFFF;" d="M148.248,134.59c0.091-0.708-0.438-1.214-1.112-1.273c-1.831-0.162-3.215-1.61-4.03-3.147
			c-1.085-2.045-1.359-4.429-1.649-6.691c-0.052-0.406-0.393-0.587-0.751-0.597c-0.508-0.36-1.412-0.268-1.508,0.47
			c-0.162,1.245-0.108,2.513-0.257,3.764c-0.148,1.241-0.388,2.497-0.854,3.661c-0.73,1.826-2.133,3.418-4.1,3.866
			c-0.818,0.186-0.737,1.236-0.203,1.58c0.133,0.151,0.333,0.247,0.599,0.235c2.072-0.094,3.498,1.576,4.358,3.268
			c0.485,0.955,0.857,1.97,1.194,2.985c0.174,0.524,0.334,1.052,0.483,1.583c0.169,0.604,0.22,1.383,0.706,1.817
			c0.537,0.478,1.307,0.261,1.534-0.415c0.1-0.297,0.063-0.621-0.019-0.944c0.261-1.895,0.721-3.773,1.378-5.568
			c0.304-0.83,0.729-1.626,1.379-2.236c0.29-0.272,0.618-0.494,0.965-0.687c0.363-0.202,0.831-0.305,1.156-0.552
			c0.194-0.147,0.347-0.326,0.435-0.531C148.101,135.011,148.219,134.817,148.248,134.59z"/>
		<path style="fill:#FFFFFF;" d="M344.355,367.214c0.097-0.75-0.464-1.286-1.177-1.349c-1.939-0.171-3.405-1.705-4.269-3.333
			c-1.149-2.166-1.439-4.691-1.747-7.087c-0.055-0.43-0.416-0.622-0.796-0.633c-0.538-0.381-1.495-0.284-1.597,0.498
			c-0.171,1.318-0.115,2.662-0.272,3.987c-0.156,1.315-0.411,2.645-0.904,3.878c-0.773,1.934-2.259,3.62-4.343,4.095
			c-0.866,0.198-0.78,1.309-0.215,1.674c0.141,0.16,0.352,0.262,0.634,0.249c2.195-0.1,3.705,1.669,4.616,3.461
			c0.514,1.011,0.908,2.087,1.265,3.162c0.184,0.555,0.354,1.114,0.512,1.677c0.179,0.64,0.233,1.465,0.748,1.924
			c0.569,0.507,1.384,0.276,1.625-0.44c0.106-0.315,0.066-0.658-0.02-1c0.277-2.008,0.763-3.996,1.459-5.898
			c0.322-0.879,0.772-1.722,1.461-2.369c0.307-0.288,0.655-0.523,1.022-0.728c0.385-0.214,0.88-0.323,1.225-0.585
			c0.205-0.156,0.368-0.346,0.461-0.563C344.199,367.66,344.324,367.454,344.355,367.214z"/>
	</g>
</g>
<g id="PHOTOS">
</g>
<g id="TEXTS">
</g>
</svg>
